#!OML:ASF G:\JayActor3\Patient Classification 1\Patient 1\Session 6\male.ASF
:FULLY-SPECIFIED
:DEGREES
1893
root -33.7507 15.8316 -15.5653 -178.515 -15.991 169.18
lowerback -7.71381 0.721898 -3.24897
upperback -1.20526 1.15197 -3.03274
thorax 3.07346 0.47339 -1.19742
lowerneck 5.49245 12.6932 11.9457
upperneck -4.4878 17.3112 -12.3245
head -0.0793541 8.7724 -5.52067
rclavicle 3.13086e-014 4.45278e-014
rhumerus -37.9558 -5.69345 -87.4524
rradius 26.8506
rwrist 1.7733
rhand -25.3565 -9.81002
rfingers 7.12502
rthumb 1.16723 -39.7866
lclavicle 3.13086e-014 4.45278e-014
lhumerus -34.1998 3.36115 86.436
lradius 19.8467
lwrist 20.2643
lhand -18.9137 8.46848
lfingers 7.12502
lthumb 7.38848 38.3195
rfemur -26.8914 6.7946 6.59851
rtibia 57.2258
rfoot -26.4905 -10.7378
rtoes -5.7381
lfemur 2.06638 25.1667 -27.5627
ltibia 24.8433
lfoot -23.555 -13.3633
ltoes -44.1183
1894
root -33.7496 15.832 -15.5694 -178.514 -16.053 169.178
lowerback -7.71913 0.723733 -3.26004
upperback -1.22676 1.15357 -3.0315
thorax 3.05385 0.473912 -1.18979
lowerneck 5.48493 12.6906 11.9359
upperneck -4.46802 17.3074 -12.3162
head -0.0744066 8.77029 -5.51576
rclavicle 1.11816e-014 -1.66979e-014
rhumerus -37.9686 -5.57792 -87.5238
rradius 26.8676
rwrist 1.76026
rhand -25.3319 -9.72423
rfingers 7.12502
rthumb 1.19106 -39.7007
lclavicle 1.11816e-014 -1.66979e-014
lhumerus -34.2493 3.23982 86.4948
lradius 19.9082
lwrist 20.2637
lhand -18.952 8.42254
lfingers 7.12502
lthumb 7.35152 38.2748
rfemur -26.845 6.77691 6.61196
rtibia 57.2132
rfoot -26.4932 -10.8128
rtoes -5.8973
lfemur 2.09962 25.1194 -27.5472
ltibia 24.8171
lfoot -23.5482 -13.3701
ltoes -44.0718
1895
root -33.7486 15.8323 -15.5735 -178.51 -16.1174 169.173
lowerback -7.72543 0.72567 -3.27243
upperback -1.24752 1.15547 -3.03134
thorax 3.03555 0.474541 -1.1825
lowerneck 5.47342 12.6881 11.9273
upperneck -4.45501 17.3029 -12.3143
head -0.0701893 8.76768 -5.51287
rclavicle -3.67255e-014 -3.18055e-015
rhumerus -37.9736 -5.48841 -87.5767
rradius 26.8547
rwrist 1.78481
rhand -25.2945 -9.65034
rfingers 7.12502
rthumb 1.22716 -39.6266
lclavicle -3.67255e-014 -3.18055e-015
lhumerus -34.2981 3.12384 86.5481
lradius 19.9679
lwrist 20.2862
lhand -18.9962 8.37833
lfingers 7.12502
lthumb 7.30886 38.2321
rfemur -26.8048 6.74813 6.62409
rtibia 57.2026
rfoot -26.4749 -10.9179
rtoes -6.17207
lfemur 2.12734 25.0696 -27.5356
ltibia 24.7936
lfoot -23.5403 -13.3793
ltoes -44.017
1896
root -33.7475 15.8325 -15.5775 -178.504 -16.1826 169.167
lowerback -7.73398 0.72815 -3.28676
upperback -1.2663 1.15849 -3.03212
thorax 3.02053 0.475663 -1.17495
lowerneck 5.46107 12.687 11.9174
upperneck -4.45415 17.299 -12.3177
head -0.0689345 8.76544 -5.51174
rclavicle -9.59136e-015 3.97569e-016
rhumerus -37.9715 -5.40399 -87.6252
rradius 26.8248
rwrist 1.80894
rhand -25.2689 -9.63582
rfingers 7.12502
rthumb 1.25187 -39.6119
lclavicle -9.59136e-015 3.97569e-016
lhumerus -34.3438 3.02236 86.5921
lradius 20.0238
lwrist 20.3262
lhand -19.0212 8.35569
lfingers 7.12502
lthumb 7.28466 38.2103
rfemur -26.7693 6.71494 6.63373
rtibia 57.1951
rfoot -26.4586 -11.0199
rtoes -6.43578
lfemur 2.15151 25.0256 -27.5257
ltibia 24.7726
lfoot -23.5325 -13.3946
ltoes -43.9613
1897
root -33.7463 15.8325 -15.5815 -178.493 -16.2491 169.154
lowerback -7.74536 0.730628 -3.30649
upperback -1.28302 1.16216 -3.03427
thorax 3.00914 0.476979 -1.16572
lowerneck 5.44272 12.6857 11.9115
upperneck -4.45954 17.2936 -12.3331
head -0.067239 8.76237 -5.51444
rclavicle 2.22142e-014 -3.22031e-014
rhumerus -37.9617 -5.33579 -87.6612
rradius 26.772
rwrist 1.85629
rhand -25.2398 -9.63538
rfingers 7.12502
rthumb 1.27993 -39.6113
lclavicle 2.22142e-014 -3.22031e-014
lhumerus -34.3851 2.93464 86.6293
lradius 20.0734
lwrist 20.3831
lhand -19.0316 8.34611
lfingers 7.12502
lthumb 7.27467 38.2011
rfemur -26.7385 6.67681 6.63576
rtibia 57.1908
rfoot -26.4433 -11.1063
rtoes -6.66419
lfemur 2.17304 24.9939 -27.5194
ltibia 24.7524
lfoot -23.5192 -13.4322
ltoes -43.9037
1898
root -33.7452 15.8325 -15.5853 -178.479 -16.3166 169.138
lowerback -7.75899 0.73296 -3.32726
upperback -1.29768 1.16597 -3.03788
thorax 3.00114 0.478304 -1.15737
lowerneck 5.42195 12.6862 11.9039
upperneck -4.47378 17.2896 -12.3538
head -0.0672449 8.75994 -5.51854
rclavicle -1.78906e-014 -7.95139e-016
rhumerus -37.9445 -5.27718 -87.6911
rradius 26.7007
rwrist 1.91286
rhand -25.2153 -9.66111
rfingers 7.12502
rthumb 1.30364 -39.6369
lclavicle -1.78906e-014 -7.95139e-016
lhumerus -34.422 2.87314 86.6535
lradius 20.1148
lwrist 20.448
lhand -19.0181 8.3505
lfingers 7.12502
lthumb 7.28764 38.205
rfemur -26.7101 6.63801 6.63236
rtibia 57.1897
rfoot -26.4413 -11.1711
rtoes -6.83107
lfemur 2.19321 24.9691 -27.5149
ltibia 24.732
lfoot -23.5024 -13.4809
ltoes -43.8434
